<?xml version="1.0" encoding="utf-8"?><svg version="1.1" xmlns="http://www.w3.org/2000/svg" xmlns:xlink="http://www.w3.org/1999/xlink" width="450px" height="450px" viewBox="0 0 450 450"><rect x="0" y="0" width="70" height="10"></rect><rect x="80" y="0" width="10" height="10"></rect><rect x="140" y="0" width="10" height="10"></rect><rect x="190" y="0" width="50" height="10"></rect><rect x="290" y="0" width="40" height="10"></rect><rect x="360" y="0" width="10" height="10"></rect><rect x="380" y="0" width="70" height="10"></rect><rect x="0" y="10" width="10" height="10"></rect><rect x="60" y="10" width="10" height="10"></rect><rect x="80" y="10" width="20" height="10"></rect><rect x="120" y="10" width="10" height="10"></rect><rect x="140" y="10" width="10" height="10"></rect><rect x="200" y="10" width="10" height="10"></rect><rect x="220" y="10" width="10" height="10"></rect><rect x="250" y="10" width="20" height="10"></rect><rect x="290" y="10" width="20" height="10"></rect><rect x="350" y="10" width="10" height="10"></rect><rect x="380" y="10" width="10" height="10"></rect><rect x="440" y="10" width="10" height="10"></rect><rect x="0" y="20" width="10" height="10"></rect><rect x="20" y="20" width="30" height="10"></rect><rect x="60" y="20" width="10" height="10"></rect><rect x="130" y="20" width="10" height="10"></rect><rect x="150" y="20" width="30" height="10"></rect><rect x="190" y="20" width="10" height="10"></rect><rect x="270" y="20" width="50" height="10"></rect><rect x="350" y="20" width="10" height="10"></rect><rect x="380" y="20" width="10" height="10"></rect><rect x="400" y="20" width="30" height="10"></rect><rect x="440" y="20" width="10" height="10"></rect><rect x="0" y="30" width="10" height="10"></rect><rect x="20" y="30" width="30" height="10"></rect><rect x="60" y="30" width="10" height="10"></rect><rect x="80" y="30" width="10" height="10"></rect><rect x="100" y="30" width="10" height="10"></rect><rect x="130" y="30" width="20" height="10"></rect><rect x="170" y="30" width="50" height="10"></rect><rect x="230" y="30" width="10" height="10"></rect><rect x="250" y="30" width="10" height="10"></rect><rect x="290" y="30" width="30" height="10"></rect><rect x="330" y="30" width="10" height="10"></rect><rect x="350" y="30" width="20" height="10"></rect><rect x="380" y="30" width="10" height="10"></rect><rect x="400" y="30" width="30" height="10"></rect><rect x="440" y="30" width="10" height="10"></rect><rect x="0" y="40" width="10" height="10"></rect><rect x="20" y="40" width="30" height="10"></rect><rect x="60" y="40" width="10" height="10"></rect><rect x="80" y="40" width="30" height="10"></rect><rect x="120" y="40" width="40" height="10"></rect><rect x="170" y="40" width="80" height="10"></rect><rect x="260" y="40" width="10" height="10"></rect><rect x="300" y="40" width="10" height="10"></rect><rect x="320" y="40" width="10" height="10"></rect><rect x="340" y="40" width="30" height="10"></rect><rect x="380" y="40" width="10" height="10"></rect><rect x="400" y="40" width="30" height="10"></rect><rect x="440" y="40" width="10" height="10"></rect><rect x="0" y="50" width="10" height="10"></rect><rect x="60" y="50" width="10" height="10"></rect><rect x="80" y="50" width="10" height="10"></rect><rect x="140" y="50" width="10" height="10"></rect><rect x="160" y="50" width="10" height="10"></rect><rect x="200" y="50" width="10" height="10"></rect><rect x="240" y="50" width="20" height="10"></rect><rect x="280" y="50" width="10" height="10"></rect><rect x="300" y="50" width="30" height="10"></rect><rect x="380" y="50" width="10" height="10"></rect><rect x="440" y="50" width="10" height="10"></rect><rect x="0" y="60" width="70" height="10"></rect><rect x="80" y="60" width="10" height="10"></rect><rect x="100" y="60" width="10" height="10"></rect><rect x="120" y="60" width="10" height="10"></rect><rect x="140" y="60" width="10" height="10"></rect><rect x="160" y="60" width="10" height="10"></rect><rect x="180" y="60" width="10" height="10"></rect><rect x="200" y="60" width="10" height="10"></rect><rect x="220" y="60" width="10" height="10"></rect><rect x="240" y="60" width="10" height="10"></rect><rect x="260" y="60" width="10" height="10"></rect><rect x="280" y="60" width="10" height="10"></rect><rect x="300" y="60" width="10" height="10"></rect><rect x="320" y="60" width="10" height="10"></rect><rect x="340" y="60" width="10" height="10"></rect><rect x="360" y="60" width="10" height="10"></rect><rect x="380" y="60" width="70" height="10"></rect><rect x="90" y="70" width="30" height="10"></rect><rect x="140" y="70" width="20" height="10"></rect><rect x="170" y="70" width="20" height="10"></rect><rect x="200" y="70" width="10" height="10"></rect><rect x="240" y="70" width="10" height="10"></rect><rect x="260" y="70" width="20" height="10"></rect><rect x="320" y="70" width="10" height="10"></rect><rect x="350" y="70" width="10" height="10"></rect><rect x="30" y="80" width="10" height="10"></rect><rect x="60" y="80" width="10" height="10"></rect><rect x="120" y="80" width="20" height="10"></rect><rect x="180" y="80" width="80" height="10"></rect><rect x="280" y="80" width="10" height="10"></rect><rect x="300" y="80" width="20" height="10"></rect><rect x="330" y="80" width="10" height="10"></rect><rect x="350" y="80" width="10" height="10"></rect><rect x="390" y="80" width="30" height="10"></rect><rect x="430" y="80" width="20" height="10"></rect><rect x="20" y="90" width="10" height="10"></rect><rect x="40" y="90" width="10" height="10"></rect><rect x="100" y="90" width="10" height="10"></rect><rect x="120" y="90" width="30" height="10"></rect><rect x="160" y="90" width="10" height="10"></rect><rect x="180" y="90" width="10" height="10"></rect><rect x="220" y="90" width="30" height="10"></rect><rect x="260" y="90" width="10" height="10"></rect><rect x="280" y="90" width="10" height="10"></rect><rect x="310" y="90" width="10" height="10"></rect><rect x="330" y="90" width="10" height="10"></rect><rect x="350" y="90" width="10" height="10"></rect><rect x="420" y="90" width="30" height="10"></rect><rect x="10" y="100" width="10" height="10"></rect><rect x="50" y="100" width="100" height="10"></rect><rect x="170" y="100" width="30" height="10"></rect><rect x="210" y="100" width="10" height="10"></rect><rect x="230" y="100" width="50" height="10"></rect><rect x="320" y="100" width="10" height="10"></rect><rect x="340" y="100" width="40" height="10"></rect><rect x="390" y="100" width="20" height="10"></rect><rect x="440" y="100" width="10" height="10"></rect><rect x="0" y="110" width="10" height="10"></rect><rect x="50" y="110" width="10" height="10"></rect><rect x="80" y="110" width="30" height="10"></rect><rect x="130" y="110" width="40" height="10"></rect><rect x="210" y="110" width="10" height="10"></rect><rect x="250" y="110" width="10" height="10"></rect><rect x="270" y="110" width="10" height="10"></rect><rect x="290" y="110" width="10" height="10"></rect><rect x="310" y="110" width="10" height="10"></rect><rect x="330" y="110" width="20" height="10"></rect><rect x="370" y="110" width="20" height="10"></rect><rect x="400" y="110" width="20" height="10"></rect><rect x="430" y="110" width="20" height="10"></rect><rect x="0" y="120" width="30" height="10"></rect><rect x="40" y="120" width="10" height="10"></rect><rect x="60" y="120" width="10" height="10"></rect><rect x="90" y="120" width="30" height="10"></rect><rect x="190" y="120" width="10" height="10"></rect><rect x="210" y="120" width="10" height="10"></rect><rect x="230" y="120" width="20" height="10"></rect><rect x="270" y="120" width="80" height="10"></rect><rect x="380" y="120" width="30" height="10"></rect><rect x="430" y="120" width="20" height="10"></rect><rect x="20" y="130" width="40" height="10"></rect><rect x="70" y="130" width="10" height="10"></rect><rect x="100" y="130" width="20" height="10"></rect><rect x="150" y="130" width="20" height="10"></rect><rect x="180" y="130" width="10" height="10"></rect><rect x="210" y="130" width="30" height="10"></rect><rect x="250" y="130" width="20" height="10"></rect><rect x="280" y="130" width="10" height="10"></rect><rect x="320" y="130" width="10" height="10"></rect><rect x="340" y="130" width="10" height="10"></rect><rect x="370" y="130" width="10" height="10"></rect><rect x="400" y="130" width="30" height="10"></rect><rect x="440" y="130" width="10" height="10"></rect><rect x="0" y="140" width="30" height="10"></rect><rect x="40" y="140" width="40" height="10"></rect><rect x="90" y="140" width="20" height="10"></rect><rect x="120" y="140" width="10" height="10"></rect><rect x="140" y="140" width="20" height="10"></rect><rect x="180" y="140" width="30" height="10"></rect><rect x="230" y="140" width="10" height="10"></rect><rect x="270" y="140" width="20" height="10"></rect><rect x="330" y="140" width="10" height="10"></rect><rect x="370" y="140" width="30" height="10"></rect><rect x="410" y="140" width="30" height="10"></rect><rect x="0" y="150" width="40" height="10"></rect><rect x="70" y="150" width="10" height="10"></rect><rect x="120" y="150" width="20" height="10"></rect><rect x="150" y="150" width="10" height="10"></rect><rect x="170" y="150" width="20" height="10"></rect><rect x="200" y="150" width="20" height="10"></rect><rect x="240" y="150" width="20" height="10"></rect><rect x="270" y="150" width="10" height="10"></rect><rect x="300" y="150" width="30" height="10"></rect><rect x="360" y="150" width="10" height="10"></rect><rect x="400" y="150" width="10" height="10"></rect><rect x="0" y="160" width="10" height="10"></rect><rect x="40" y="160" width="30" height="10"></rect><rect x="100" y="160" width="10" height="10"></rect><rect x="120" y="160" width="20" height="10"></rect><rect x="160" y="160" width="20" height="10"></rect><rect x="190" y="160" width="10" height="10"></rect><rect x="210" y="160" width="10" height="10"></rect><rect x="250" y="160" width="20" height="10"></rect><rect x="280" y="160" width="10" height="10"></rect><rect x="320" y="160" width="10" height="10"></rect><rect x="380" y="160" width="20" height="10"></rect><rect x="410" y="160" width="10" height="10"></rect><rect x="430" y="160" width="10" height="10"></rect><rect x="0" y="170" width="20" height="10"></rect><rect x="30" y="170" width="10" height="10"></rect><rect x="50" y="170" width="10" height="10"></rect><rect x="70" y="170" width="10" height="10"></rect><rect x="100" y="170" width="10" height="10"></rect><rect x="120" y="170" width="10" height="10"></rect><rect x="150" y="170" width="30" height="10"></rect><rect x="190" y="170" width="10" height="10"></rect><rect x="230" y="170" width="10" height="10"></rect><rect x="250" y="170" width="10" height="10"></rect><rect x="270" y="170" width="10" height="10"></rect><rect x="290" y="170" width="20" height="10"></rect><rect x="320" y="170" width="10" height="10"></rect><rect x="350" y="170" width="10" height="10"></rect><rect x="370" y="170" width="20" height="10"></rect><rect x="410" y="170" width="30" height="10"></rect><rect x="10" y="180" width="10" height="10"></rect><rect x="60" y="180" width="10" height="10"></rect><rect x="90" y="180" width="10" height="10"></rect><rect x="120" y="180" width="20" height="10"></rect><rect x="150" y="180" width="10" height="10"></rect><rect x="170" y="180" width="20" height="10"></rect><rect x="240" y="180" width="20" height="10"></rect><rect x="270" y="180" width="10" height="10"></rect><rect x="300" y="180" width="30" height="10"></rect><rect x="350" y="180" width="10" height="10"></rect><rect x="400" y="180" width="10" height="10"></rect><rect x="430" y="180" width="20" height="10"></rect><rect x="10" y="190" width="20" height="10"></rect><rect x="40" y="190" width="10" height="10"></rect><rect x="70" y="190" width="10" height="10"></rect><rect x="120" y="190" width="20" height="10"></rect><rect x="160" y="190" width="10" height="10"></rect><rect x="190" y="190" width="10" height="10"></rect><rect x="210" y="190" width="20" height="10"></rect><rect x="250" y="190" width="20" height="10"></rect><rect x="290" y="190" width="10" height="10"></rect><rect x="320" y="190" width="10" height="10"></rect><rect x="430" y="190" width="10" height="10"></rect><rect x="0" y="200" width="20" height="10"></rect><rect x="40" y="200" width="50" height="10"></rect><rect x="100" y="200" width="10" height="10"></rect><rect x="120" y="200" width="10" height="10"></rect><rect x="140" y="200" width="10" height="10"></rect><rect x="180" y="200" width="80" height="10"></rect><rect x="270" y="200" width="20" height="10"></rect><rect x="300" y="200" width="20" height="10"></rect><rect x="330" y="200" width="10" height="10"></rect><rect x="350" y="200" width="70" height="10"></rect><rect x="430" y="200" width="10" height="10"></rect><rect x="0" y="210" width="30" height="10"></rect><rect x="40" y="210" width="10" height="10"></rect><rect x="80" y="210" width="50" height="10"></rect><rect x="140" y="210" width="20" height="10"></rect><rect x="200" y="210" width="10" height="10"></rect><rect x="240" y="210" width="40" height="10"></rect><rect x="290" y="210" width="10" height="10"></rect><rect x="320" y="210" width="10" height="10"></rect><rect x="360" y="210" width="10" height="10"></rect><rect x="400" y="210" width="10" height="10"></rect><rect x="420" y="210" width="30" height="10"></rect><rect x="0" y="220" width="10" height="10"></rect><rect x="20" y="220" width="30" height="10"></rect><rect x="60" y="220" width="10" height="10"></rect><rect x="80" y="220" width="20" height="10"></rect><rect x="140" y="220" width="10" height="10"></rect><rect x="160" y="220" width="10" height="10"></rect><rect x="200" y="220" width="10" height="10"></rect><rect x="220" y="220" width="10" height="10"></rect><rect x="240" y="220" width="20" height="10"></rect><rect x="270" y="220" width="10" height="10"></rect><rect x="290" y="220" width="30" height="10"></rect><rect x="340" y="220" width="10" height="10"></rect><rect x="360" y="220" width="10" height="10"></rect><rect x="380" y="220" width="10" height="10"></rect><rect x="400" y="220" width="20" height="10"></rect><rect x="440" y="220" width="10" height="10"></rect><rect x="40" y="230" width="10" height="10"></rect><rect x="80" y="230" width="20" height="10"></rect><rect x="120" y="230" width="10" height="10"></rect><rect x="160" y="230" width="10" height="10"></rect><rect x="180" y="230" width="10" height="10"></rect><rect x="200" y="230" width="10" height="10"></rect><rect x="240" y="230" width="30" height="10"></rect><rect x="290" y="230" width="40" height="10"></rect><rect x="340" y="230" width="10" height="10"></rect><rect x="360" y="230" width="10" height="10"></rect><rect x="400" y="230" width="10" height="10"></rect><rect x="430" y="230" width="20" height="10"></rect><rect x="0" y="240" width="30" height="10"></rect><rect x="40" y="240" width="50" height="10"></rect><rect x="100" y="240" width="20" height="10"></rect><rect x="150" y="240" width="100" height="10"></rect><rect x="280" y="240" width="40" height="10"></rect><rect x="360" y="240" width="50" height="10"></rect><rect x="10" y="250" width="10" height="10"></rect><rect x="30" y="250" width="30" height="10"></rect><rect x="130" y="250" width="30" height="10"></rect><rect x="170" y="250" width="10" height="10"></rect><rect x="190" y="250" width="10" height="10"></rect><rect x="210" y="250" width="10" height="10"></rect><rect x="240" y="250" width="10" height="10"></rect><rect x="270" y="250" width="40" height="10"></rect><rect x="320" y="250" width="10" height="10"></rect><rect x="380" y="250" width="10" height="10"></rect><rect x="400" y="250" width="10" height="10"></rect><rect x="440" y="250" width="10" height="10"></rect><rect x="0" y="260" width="30" height="10"></rect><rect x="50" y="260" width="20" height="10"></rect><rect x="80" y="260" width="10" height="10"></rect><rect x="100" y="260" width="40" height="10"></rect><rect x="150" y="260" width="10" height="10"></rect><rect x="170" y="260" width="30" height="10"></rect><rect x="210" y="260" width="10" height="10"></rect><rect x="260" y="260" width="10" height="10"></rect><rect x="280" y="260" width="20" height="10"></rect><rect x="310" y="260" width="20" height="10"></rect><rect x="340" y="260" width="10" height="10"></rect><rect x="360" y="260" width="20" height="10"></rect><rect x="420" y="260" width="10" height="10"></rect><rect x="10" y="270" width="10" height="10"></rect><rect x="40" y="270" width="20" height="10"></rect><rect x="70" y="270" width="50" height="10"></rect><rect x="170" y="270" width="20" height="10"></rect><rect x="200" y="270" width="10" height="10"></rect><rect x="220" y="270" width="10" height="10"></rect><rect x="240" y="270" width="20" height="10"></rect><rect x="280" y="270" width="10" height="10"></rect><rect x="310" y="270" width="20" height="10"></rect><rect x="340" y="270" width="60" height="10"></rect><rect x="430" y="270" width="10" height="10"></rect><rect x="0" y="280" width="30" height="10"></rect><rect x="60" y="280" width="10" height="10"></rect><rect x="80" y="280" width="10" height="10"></rect><rect x="100" y="280" width="20" height="10"></rect><rect x="140" y="280" width="10" height="10"></rect><rect x="160" y="280" width="10" height="10"></rect><rect x="190" y="280" width="20" height="10"></rect><rect x="230" y="280" width="10" height="10"></rect><rect x="250" y="280" width="10" height="10"></rect><rect x="290" y="280" width="20" height="10"></rect><rect x="320" y="280" width="100" height="10"></rect><rect x="430" y="280" width="10" height="10"></rect><rect x="0" y="290" width="40" height="10"></rect><rect x="70" y="290" width="40" height="10"></rect><rect x="210" y="290" width="30" height="10"></rect><rect x="270" y="290" width="10" height="10"></rect><rect x="300" y="290" width="20" height="10"></rect><rect x="350" y="290" width="40" height="10"></rect><rect x="420" y="290" width="20" height="10"></rect><rect x="10" y="300" width="10" height="10"></rect><rect x="50" y="300" width="20" height="10"></rect><rect x="80" y="300" width="10" height="10"></rect><rect x="100" y="300" width="30" height="10"></rect><rect x="160" y="300" width="10" height="10"></rect><rect x="180" y="300" width="20" height="10"></rect><rect x="230" y="300" width="30" height="10"></rect><rect x="290" y="300" width="30" height="10"></rect><rect x="350" y="300" width="40" height="10"></rect><rect x="400" y="300" width="10" height="10"></rect><rect x="420" y="300" width="30" height="10"></rect><rect x="0" y="310" width="10" height="10"></rect><rect x="20" y="310" width="10" height="10"></rect><rect x="40" y="310" width="10" height="10"></rect><rect x="70" y="310" width="40" height="10"></rect><rect x="130" y="310" width="10" height="10"></rect><rect x="150" y="310" width="30" height="10"></rect><rect x="220" y="310" width="10" height="10"></rect><rect x="240" y="310" width="40" height="10"></rect><rect x="290" y="310" width="40" height="10"></rect><rect x="340" y="310" width="10" height="10"></rect><rect x="360" y="310" width="30" height="10"></rect><rect x="400" y="310" width="10" height="10"></rect><rect x="430" y="310" width="10" height="10"></rect><rect x="10" y="320" width="10" height="10"></rect><rect x="30" y="320" width="10" height="10"></rect><rect x="50" y="320" width="30" height="10"></rect><rect x="100" y="320" width="10" height="10"></rect><rect x="120" y="320" width="40" height="10"></rect><rect x="180" y="320" width="20" height="10"></rect><rect x="220" y="320" width="20" height="10"></rect><rect x="280" y="320" width="10" height="10"></rect><rect x="300" y="320" width="20" height="10"></rect><rect x="340" y="320" width="20" height="10"></rect><rect x="370" y="320" width="20" height="10"></rect><rect x="10" y="330" width="50" height="10"></rect><rect x="80" y="330" width="10" height="10"></rect><rect x="170" y="330" width="10" height="10"></rect><rect x="210" y="330" width="20" height="10"></rect><rect x="250" y="330" width="10" height="10"></rect><rect x="270" y="330" width="30" height="10"></rect><rect x="360" y="330" width="20" height="10"></rect><rect x="430" y="330" width="20" height="10"></rect><rect x="40" y="340" width="10" height="10"></rect><rect x="60" y="340" width="10" height="10"></rect><rect x="80" y="340" width="10" height="10"></rect><rect x="100" y="340" width="10" height="10"></rect><rect x="140" y="340" width="10" height="10"></rect><rect x="200" y="340" width="60" height="10"></rect><rect x="270" y="340" width="10" height="10"></rect><rect x="290" y="340" width="20" height="10"></rect><rect x="340" y="340" width="10" height="10"></rect><rect x="360" y="340" width="30" height="10"></rect><rect x="420" y="340" width="10" height="10"></rect><rect x="440" y="340" width="10" height="10"></rect><rect x="10" y="350" width="40" height="10"></rect><rect x="70" y="350" width="20" height="10"></rect><rect x="110" y="350" width="10" height="10"></rect><rect x="150" y="350" width="20" height="10"></rect><rect x="180" y="350" width="20" height="10"></rect><rect x="220" y="350" width="20" height="10"></rect><rect x="250" y="350" width="30" height="10"></rect><rect x="290" y="350" width="20" height="10"></rect><rect x="350" y="350" width="40" height="10"></rect><rect x="410" y="350" width="10" height="10"></rect><rect x="430" y="350" width="10" height="10"></rect><rect x="0" y="360" width="10" height="10"></rect><rect x="30" y="360" width="20" height="10"></rect><rect x="60" y="360" width="10" height="10"></rect><rect x="80" y="360" width="10" height="10"></rect><rect x="120" y="360" width="30" height="10"></rect><rect x="160" y="360" width="30" height="10"></rect><rect x="200" y="360" width="50" height="10"></rect><rect x="260" y="360" width="20" height="10"></rect><rect x="300" y="360" width="50" height="10"></rect><rect x="360" y="360" width="60" height="10"></rect><rect x="430" y="360" width="10" height="10"></rect><rect x="80" y="370" width="10" height="10"></rect><rect x="120" y="370" width="10" height="10"></rect><rect x="140" y="370" width="20" height="10"></rect><rect x="170" y="370" width="20" height="10"></rect><rect x="200" y="370" width="10" height="10"></rect><rect x="240" y="370" width="40" height="10"></rect><rect x="300" y="370" width="10" height="10"></rect><rect x="330" y="370" width="20" height="10"></rect><rect x="360" y="370" width="10" height="10"></rect><rect x="400" y="370" width="10" height="10"></rect><rect x="420" y="370" width="10" height="10"></rect><rect x="440" y="370" width="10" height="10"></rect><rect x="0" y="380" width="70" height="10"></rect><rect x="100" y="380" width="10" height="10"></rect><rect x="120" y="380" width="10" height="10"></rect><rect x="140" y="380" width="20" height="10"></rect><rect x="180" y="380" width="30" height="10"></rect><rect x="220" y="380" width="10" height="10"></rect><rect x="240" y="380" width="30" height="10"></rect><rect x="280" y="380" width="30" height="10"></rect><rect x="320" y="380" width="10" height="10"></rect><rect x="360" y="380" width="10" height="10"></rect><rect x="380" y="380" width="10" height="10"></rect><rect x="400" y="380" width="10" height="10"></rect><rect x="430" y="380" width="10" height="10"></rect><rect x="0" y="390" width="10" height="10"></rect><rect x="60" y="390" width="10" height="10"></rect><rect x="100" y="390" width="30" height="10"></rect><rect x="170" y="390" width="10" height="10"></rect><rect x="190" y="390" width="20" height="10"></rect><rect x="240" y="390" width="10" height="10"></rect><rect x="260" y="390" width="10" height="10"></rect><rect x="280" y="390" width="10" height="10"></rect><rect x="300" y="390" width="70" height="10"></rect><rect x="400" y="390" width="10" height="10"></rect><rect x="430" y="390" width="20" height="10"></rect><rect x="0" y="400" width="10" height="10"></rect><rect x="20" y="400" width="30" height="10"></rect><rect x="60" y="400" width="10" height="10"></rect><rect x="90" y="400" width="20" height="10"></rect><rect x="130" y="400" width="10" height="10"></rect><rect x="160" y="400" width="10" height="10"></rect><rect x="180" y="400" width="10" height="10"></rect><rect x="200" y="400" width="80" height="10"></rect><rect x="320" y="400" width="20" height="10"></rect><rect x="360" y="400" width="50" height="10"></rect><rect x="0" y="410" width="10" height="10"></rect><rect x="20" y="410" width="30" height="10"></rect><rect x="60" y="410" width="10" height="10"></rect><rect x="80" y="410" width="20" height="10"></rect><rect x="120" y="410" width="10" height="10"></rect><rect x="150" y="410" width="20" height="10"></rect><rect x="180" y="410" width="40" height="10"></rect><rect x="260" y="410" width="10" height="10"></rect><rect x="280" y="410" width="10" height="10"></rect><rect x="320" y="410" width="10" height="10"></rect><rect x="360" y="410" width="70" height="10"></rect><rect x="0" y="420" width="10" height="10"></rect><rect x="20" y="420" width="30" height="10"></rect><rect x="60" y="420" width="10" height="10"></rect><rect x="90" y="420" width="10" height="10"></rect><rect x="130" y="420" width="30" height="10"></rect><rect x="170" y="420" width="20" height="10"></rect><rect x="210" y="420" width="20" height="10"></rect><rect x="240" y="420" width="10" height="10"></rect><rect x="260" y="420" width="40" height="10"></rect><rect x="310" y="420" width="10" height="10"></rect><rect x="350" y="420" width="30" height="10"></rect><rect x="400" y="420" width="20" height="10"></rect><rect x="440" y="420" width="10" height="10"></rect><rect x="0" y="430" width="10" height="10"></rect><rect x="60" y="430" width="10" height="10"></rect><rect x="100" y="430" width="10" height="10"></rect><rect x="120" y="430" width="20" height="10"></rect><rect x="190" y="430" width="10" height="10"></rect><rect x="210" y="430" width="10" height="10"></rect><rect x="240" y="430" width="20" height="10"></rect><rect x="280" y="430" width="40" height="10"></rect><rect x="330" y="430" width="40" height="10"></rect><rect x="390" y="430" width="10" height="10"></rect><rect x="0" y="440" width="70" height="10"></rect><rect x="90" y="440" width="10" height="10"></rect><rect x="130" y="440" width="10" height="10"></rect><rect x="150" y="440" width="10" height="10"></rect><rect x="170" y="440" width="10" height="10"></rect><rect x="210" y="440" width="10" height="10"></rect><rect x="230" y="440" width="20" height="10"></rect><rect x="260" y="440" width="10" height="10"></rect><rect x="300" y="440" width="10" height="10"></rect><rect x="330" y="440" width="20" height="10"></rect><rect x="370" y="440" width="20" height="10"></rect><rect x="400" y="440" width="10" height="10"></rect><rect x="430" y="440" width="10" height="10"></rect></svg>
